# File created by Blade
# Date/Time:  Wed Jan 21 17:41:05 2015
#---------------------------------------------------------
:version 1.10
:name HOM
:units
  mass 1.0
  length 1.000000
  angle deg
:documentation
     Acclaim Skeleton File
:root
   axis xyz
   order TX TY TZ RX RY RZ
   position 0.000000 0.000000 0.000000
   orientation 0 0 0
:bonedata
   begin
      id 1
      name Spine_dum
      direction 0.000000 1.000000 0.000000
      length 7.067664
      axis 0.0 0.0 0.0 xyz
   end
   begin
      id 2
      name LeftUpLeg_dum
      direction 1.000000 0.000000 0.000000
      length 4.013002
      axis 0.0 0.0 0.0 xyz
   end
   begin
      id 3
      name RightUpLeg_dum
      direction -1.000000 0.000000 0.000000
      length 4.013002
      axis 0.0 0.0 0.0 xyz
   end
   begin
      id 4
      name Spine
      direction 0.000000 1.000000 0.000000
      length 0.000000
      axis 0.0 0.0 0.0 xyz
      dof rx ry rz
   end
   begin
      id 5
      name Spine_dum1
      direction 0.000000 1.000000 0.000000
      length 15.039886
      axis 0.0 0.0 0.0 xyz
   end
   begin
      id 6
      name Spine_dum2
      direction 0.000000 1.000000 0.000000
      length 10.530368
      axis 0.0 0.0 0.0 xyz
   end
   begin
      id 7
      name Spine_dum3
      direction 0.000000 1.000000 0.000000
      length 10.530368
      axis 0.0 0.0 0.0 xyz
   end
   begin
      id 8
      name Head
      direction 0.000000 1.000000 0.000000
      length 4.527550
      axis 0.0 0.0 0.0 xyz
      dof rx ry rz
   end
   begin
      id 9
      name LeftShoulder
      direction 1.000000 0.000000 0.000000
      length 7.028855
      axis 0.0 0.0 -90.0 xyz
      dof rx ry rz
   end
   begin
      id 10
      name LeftArm
      direction 1.000000 0.000000 0.000000
      length 10.797705
      axis 0.0 0.0 -90.0 xyz
      dof rx ry rz
   end
   begin
      id 11
      name LeftForeArm
      direction 1.000000 0.000000 0.000000
      length 7.907442
      axis 0.0 0.0 -90.0 xyz
      dof ry rz rx
   end
   begin
      id 12
      name LeftHand
      direction 0.000000 0.000000 0.000000
      length 0.000000
      axis 0.0 0.0 -90.0 xyz
      dof rx ry rz
   end
   begin
      id 13
      name LeftHand_dum1
      direction 0.000000 0.000000 0.000000
      length 0.000000
      axis 0.0 0.0 -90.0 xyz
   end
   begin
      id 14
      name LeftHand_dum2
      direction 1.000000 0.000000 0.000000
      length 3.937000
      axis 0.0 0.0 -90.0 xyz
   end
   begin
      id 15
      name LeftHandThumb1
      direction 0.000000 0.000000 1.000000
      length 3.937000
      axis 0.0 0.0 -90.0 xyz
      dof rx rz ry
   end
   begin
      id 16
      name RightShoulder
      direction -1.000000 0.000000 0.000000
      length 7.028855
      axis 0.0 0.0 90.0 xyz
      dof rx ry rz
   end
   begin
      id 17
      name RightArm
      direction -1.000000 0.000000 0.000000
      length 10.797705
      axis 0.0 0.0 90.0 xyz
      dof rx ry rz
   end
   begin
      id 18
      name RightForeArm
      direction -1.000000 0.000000 0.000000
      length 7.907442
      axis 0.0 0.0 90.0 xyz
      dof ry rz rx
   end
   begin
      id 19
      name RightHand
      direction 0.000000 0.000000 0.000000
      length 0.000000
      axis 0.0 0.0 90.0 xyz
      dof rx ry rz
   end
   begin
      id 20
      name RightHand_dum1
      direction 0.000000 0.000000 0.000000
      length 0.000000
      axis 0.0 0.0 90.0 xyz
   end
   begin
      id 21
      name RightHand_dum2
      direction -1.000000 0.000000 0.000000
      length 3.937000
      axis 0.0 0.0 90.0 xyz
   end
   begin
      id 22
      name RightHandThumb1
      direction 0.000000 0.000000 1.000000
      length 3.937000
      axis 0.0 0.0 90.0 xyz
      dof rx rz ry
   end
   begin
      id 23
      name LeftUpLeg
      direction 0.000000 -1.000000 0.000000
      length 16.899758
      axis 0.0 0.0 0.0 xyz
      dof rx ry rz
   end
   begin
      id 24
      name LeftLeg
      direction 0.000000 -1.000000 0.000000
      length 17.389183
      axis 0.0 0.0 0.0 xyz
      dof rx ry rz
   end
   begin
      id 25
      name LeftFoot
      direction 0.000000 -0.258819 0.965926
      length 4.924528
      axis 15.0 0.0 0.0 xyz
      dof rx ry rz
   end
   begin
      id 26
      name LeftToeBase
      direction 0.000000 0.000000 1.000000
      length 2.952750
      axis 0.0 0.0 0.0 xyz
      dof rx ry rz
   end
   begin
      id 27
      name RightUpLeg
      direction 0.000000 -1.000000 0.000000
      length 16.899758
      axis 0.0 0.0 0.0 xyz
      dof rx ry rz
   end
   begin
      id 28
      name RightLeg
      direction 0.000000 -1.000000 0.000000
      length 17.389183
      axis 0.0 0.0 0.0 xyz
      dof rx ry rz
   end
   begin
      id 29
      name RightFoot
      direction 0.000000 -0.258819 0.965926
      length 4.924528
      axis 15.0 0.0 0.0 xyz
      dof rx ry rz
   end
   begin
      id 30
      name RightToeBase
      direction 0.000000 0.000000 1.000000
      length 2.952750
      axis 0.0 0.0 0.0 xyz
      dof rx ry rz
   end
:hierarchy
   begin
      root Spine_dum LeftUpLeg_dum RightUpLeg_dum
      Spine_dum Spine
      LeftUpLeg_dum LeftUpLeg
      RightUpLeg_dum RightUpLeg
      Spine Spine_dum1 Spine_dum2 Spine_dum3
      Spine_dum1 Head
      Spine_dum2 LeftShoulder
      Spine_dum3 RightShoulder
      LeftShoulder LeftArm
      LeftArm LeftForeArm
      LeftForeArm LeftHand
      LeftHand LeftHand_dum1 LeftHand_dum2
      LeftHand_dum1 LeftHandThumb1
      RightShoulder RightArm
      RightArm RightForeArm
      RightForeArm RightHand
      RightHand RightHand_dum1 RightHand_dum2
      RightHand_dum1 RightHandThumb1
      LeftUpLeg LeftLeg
      LeftLeg LeftFoot
      LeftFoot LeftToeBase
      RightUpLeg RightLeg
      RightLeg RightFoot
      RightFoot RightToeBase
   end

# File created by Blade
# Date/Time:  Wed Jan 21 17:41:14 2015
# Frame Rate: 120.000 fps
#------------------------------------------------------
:FULLY-SPECIFIED
:DEGREES
1
root 17.698660 35.270649 -23.908093 -164.907279 87.987580 -158.218381
Spine -1.130438 -2.165286 -1.310720
Head 2.621530 -1.088518 1.333512
LeftShoulder -15.820786 -31.287379 22.936924
LeftArm 7.044993 0.921745 -5.587379
LeftForeArm 9.288576 0.000000 -2.832234
LeftHand -9.531459 -0.000000 -0.955221
LeftHandThumb1 -26.253704 0.000000 33.147579
RightShoulder -14.247559 -6.055783 -8.432588
RightArm 9.849291 37.565718 10.250372
RightForeArm -35.590698 0.000000 6.149854
RightHand -8.417081 -0.000000 6.331876
RightHandThumb1 -24.326973 -0.000000 -32.862282
LeftUpLeg 18.546792 7.050017 0.164950
LeftLeg -7.034490 -0.000000 0.000000
LeftFoot -20.726484 26.158287 -9.080497
LeftToeBase 23.933244 -0.000000 -0.000000
RightUpLeg 17.197062 -9.211904 -1.118158
RightLeg -4.136807 -0.000000 0.000000
RightFoot -22.194944 -23.300488 11.516214
RightToeBase 24.742937 -0.000000 -0.000000
2
root 17.697642 35.270386 -23.906267 -164.992967 87.988047 -158.247329
Spine -1.048161 -2.151594 -1.322774
Head 2.585615 -1.101288 1.337186
LeftShoulder -15.799719 -31.286438 22.941608
LeftArm 7.002409 0.909495 -5.585886
LeftForeArm 9.268407 -0.000000 -2.820115
LeftHand -9.516660 0.000000 -0.924287
LeftHandThumb1 -26.253704 0.000000 33.147579
RightShoulder -14.242072 -6.048249 -8.439927
RightArm 9.817812 37.596521 10.249887
RightForeArm -35.603951 0.000000 6.133572
RightHand -8.406242 0.000000 6.326908
RightHandThumb1 -24.326973 -0.000000 -32.862282
LeftUpLeg 18.606864 7.073836 0.181195
LeftLeg -7.042333 -0.000000 0.000000
LeftFoot -20.725905 26.124403 -9.088502
LeftToeBase 23.941227 -0.000000 -0.000000
RightUpLeg 17.258328 -9.245183 -1.135101
RightLeg -4.145620 -0.000000 0.000000
RightFoot -22.179740 -23.267966 11.484913
RightToeBase 24.704333 -0.000000 -0.000000
3
root 17.693866 35.270781 -23.905123 -164.745705 87.996204 -157.996688
Spine -1.035981 -2.148261 -1.314589
Head 2.579746 -1.098468 1.323838
LeftShoulder -15.805954 -31.294065 22.947253
LeftArm 6.978677 0.911680 -5.581345
LeftForeArm 9.253368 -0.000000 -2.836949
LeftHand -9.496638 -0.000000 -0.905725
LeftHandThumb1 -26.253704 0.000000 33.147579
RightShoulder -14.223697 -6.017261 -8.449133
RightArm 9.786355 37.566259 10.215105
RightForeArm -35.568787 0.000000 6.086539
RightHand -8.323770 -0.000000 6.298303
RightHandThumb1 -24.326973 -0.000000 -32.862282
LeftUpLeg 18.606518 7.090056 0.190584
LeftLeg -7.046074 -0.000000 0.000000
LeftFoot -20.714325 26.127553 -9.073939
LeftToeBase 23.933466 -0.000000 -0.000000
RightUpLeg 17.254507 -9.227284 -1.125343
RightLeg -4.147374 -0.000000 0.000000
RightFoot -22.182300 -23.264573 11.505019
RightToeBase 24.722360 -0.000000 -0.000000
4
root 17.687784 35.272135 -23.902838 -164.427955 87.997276 -157.720434
Spine -1.087949 -2.130597 -1.306156
Head 2.600234 -1.109031 1.312818
LeftShoulder -15.774171 -31.281284 22.930572
LeftArm 6.946479 0.893391 -5.570805
LeftForeArm 9.277253 -0.000000 -2.833585
LeftHand -9.497854 -0.000000 -0.906348
LeftHandThumb1 -26.253704 0.000000 33.147579
RightShoulder -14.229194 -6.035122 -8.452642
RightArm 9.771746 37.609954 10.221027
RightForeArm -35.584386 -0.000000 6.080056
RightHand -8.318081 -0.000000 6.287268
RightHandThumb1 -24.326973 -0.000000 -32.862282
LeftUpLeg 18.550371 7.086723 0.194261
LeftLeg -7.036077 -0.000000 0.000000
LeftFoot -20.711745 26.141243 -9.057372
LeftToeBase 23.939498 -0.000000 -0.000000
RightUpLeg 17.196330 -9.224818 -1.103775
RightLeg -4.136757 -0.000000 0.000000
RightFoot -22.170218 -23.259124 11.512330
RightToeBase 24.845104 -0.000000 -0.000000
